<svg id="Layer_1" data-name="Layer 1" xmlns="http://www.w3.org/2000/svg" viewBox="0 0 378.57 652.14"><defs><style>.cls-1{fill:#f4f4f5;}.cls-1,.cls-10,.cls-2,.cls-4,.cls-5,.cls-9{stroke:#686868;}.cls-1,.cls-10,.cls-2,.cls-4,.cls-5,.cls-7,.cls-8,.cls-9{stroke-miterlimit:10;}.cls-1,.cls-2{stroke-width:0.75px;}.cls-2{fill:#fff;}.cls-3{fill:#231f20;}.cls-10,.cls-4,.cls-5,.cls-9{fill:none;stroke-width:2px;}.cls-5{stroke-dasharray:3.99 3.99;}.cls-6{fill:#686868;}.cls-7{fill:#dbe7d6;stroke:#9fba7e;}.cls-8{fill:#dee8f6;stroke:#778ac3;}.cls-9{stroke-dasharray:4.09 4.09;}.cls-10{stroke-dasharray:4 4;}</style></defs><title>Lifecycle Diagram</title><rect class="cls-1" x="22.9" y="48.35" width="301.74" height="292" rx="3.82"/><rect class="cls-1" x="22.9" y="465.55" width="301.74" height="102.25" rx="3.82"/><rect class="cls-2" x="22.9" y="329.09" width="301.74" height="152.68"/><path class="cls-3" d="M188.24,67.16v-7h2.95v7.3c0,2.55.8,3.43,2.26,3.43s2.31-.88,2.31-3.43v-7.3h2.84v7c0,4.37-1.78,6.28-5.15,6.28S188.24,71.53,188.24,67.16Z"/><path class="cls-3" d="M201.76,69.59v-4h-1.35V63.39l1.52-.12.34-2.63h2.44v2.63h2.37v2.31h-2.37v4c0,1.13.51,1.58,1.28,1.58a2.76,2.76,0,0,0,.94-.19l.47,2.14a7.22,7.22,0,0,1-2.21.36C202.74,73.44,201.76,71.89,201.76,69.59Z"/><path class="cls-3" d="M208.8,60.28a1.71,1.71,0,1,1,1.7,1.54A1.56,1.56,0,0,1,208.8,60.28Zm.23,3H212V73.2H209Z"/><path class="cls-3" d="M214.55,70.11V59.18h2.94V70.23c0,.63.29.83.53.83a1.3,1.3,0,0,0,.36,0l.35,2.17a3.76,3.76,0,0,1-1.48.25C215.24,73.44,214.55,72.12,214.55,70.11Z"/><path class="cls-3" d="M220,60.28a1.71,1.71,0,1,1,1.7,1.54A1.56,1.56,0,0,1,220,60.28Zm.23,3h2.94V73.2h-2.94Z"/><path class="cls-3" d="M226.18,69.59v-4h-1.35V63.39l1.52-.12.34-2.63h2.44v2.63h2.37v2.31h-2.37v4c0,1.13.51,1.58,1.28,1.58a2.76,2.76,0,0,0,.94-.19l.47,2.14a7.27,7.27,0,0,1-2.21.36C227.16,73.44,226.18,71.89,226.18,69.59Z"/><path class="cls-3" d="M233.15,76.88l.52-2.24a3.33,3.33,0,0,0,.67.12,1.68,1.68,0,0,0,1.73-1.3l.15-.52-3.83-9.67h3l1.42,4.27c.28.9.52,1.84.78,2.82h.08c.22-.94.44-1.88.69-2.82l1.2-4.27h2.82l-3.45,10c-.94,2.48-2,3.77-4.33,3.77A4.49,4.49,0,0,1,233.15,76.88Z"/><path class="cls-3" d="M247.27,71.55l1.69-2a5.18,5.18,0,0,0,3.2,1.36c1.23,0,1.84-.48,1.84-1.26s-.74-1.08-1.88-1.55l-1.7-.72a3.8,3.8,0,0,1-2.63-3.55c0-2.16,1.93-3.89,4.64-3.89a6,6,0,0,1,4.2,1.71l-1.49,1.86a4.24,4.24,0,0,0-2.71-1c-1,0-1.66.43-1.66,1.17s.86,1.09,2,1.55l1.66.67A3.59,3.59,0,0,1,257,69.4c0,2.16-1.8,4-4.91,4A7.15,7.15,0,0,1,247.27,71.55Z"/><path class="cls-3" d="M258.82,69.59v-4h-1.35V63.39l1.52-.12.34-2.63h2.43v2.63h2.38v2.31h-2.38v4c0,1.13.52,1.58,1.29,1.58a2.76,2.76,0,0,0,.94-.19l.47,2.14a7.27,7.27,0,0,1-2.21.36C259.8,73.44,258.82,71.89,258.82,69.59Z"/><path class="cls-3" d="M265.23,70.45c0-2.1,1.66-3.23,5.59-3.64a1.38,1.38,0,0,0-1.57-1.44,5.47,5.47,0,0,0-2.63.9l-1-1.93A8.12,8.12,0,0,1,269.82,63c2.53,0,3.94,1.45,3.94,4.49V73.2h-2.4l-.21-1h-.07a4.36,4.36,0,0,1-2.89,1.26A2.86,2.86,0,0,1,265.23,70.45Zm5.59-.14V68.58c-2.09.28-2.77.88-2.77,1.63s.44,1,1.13,1A2.24,2.24,0,0,0,270.82,70.31Z"/><path class="cls-3" d="M276.23,63.27h2.4l.21,1.74h.07a3.35,3.35,0,0,1,2.82-2,2.82,2.82,0,0,1,1.18.2l-.49,2.54a3.88,3.88,0,0,0-1.07-.16,2.45,2.45,0,0,0-2.18,1.84V73.2h-2.94Z"/><path class="cls-3" d="M284.58,69.59v-4h-1.35V63.39l1.52-.12.34-2.63h2.43v2.63h2.38v2.31h-2.38v4c0,1.13.52,1.58,1.29,1.58a2.76,2.76,0,0,0,.94-.19l.47,2.14a7.27,7.27,0,0,1-2.21.36C285.56,73.44,284.58,71.89,284.58,69.59Z"/><path class="cls-3" d="M291.75,69.43V63.27h2.94v5.79c0,1.43.39,1.87,1.24,1.87a2,2,0,0,0,1.76-1.09V63.27h2.94V73.2h-2.4L298,71.82H298a3.89,3.89,0,0,1-3.12,1.62C292.67,73.44,291.75,71.92,291.75,69.43Z"/><path class="cls-3" d="M303.21,63.27h2.39l.22,1h.07A4.44,4.44,0,0,1,308.72,63c2.4,0,3.87,2,3.87,5,0,3.4-2,5.36-4.18,5.36a3.48,3.48,0,0,1-2.36-1l.1,1.57v2.91h-2.94Zm6.37,4.84c0-1.78-.55-2.67-1.73-2.67a2.28,2.28,0,0,0-1.7.89V70.4a2.33,2.33,0,0,0,1.58.63C308.76,71,309.58,70.17,309.58,68.11Z"/><line class="cls-4" x1="108.45" y1="64.67" x2="108.45" y2="66.67"/><line class="cls-5" x1="108.45" y1="70.66" x2="108.45" y2="316.04"/><line class="cls-4" x1="108.45" y1="318.03" x2="108.45" y2="320.03"/><path class="cls-6" d="M108.45,326.07a30.59,30.59,0,0,0-4.76-8.55l4.76,1.72,4.75-1.72A30.31,30.31,0,0,0,108.45,326.07Z"/><rect class="cls-7" x="36.76" y="82.05" width="143.36" height="35.87" rx="3.82"/><path class="cls-3" d="M75.87,108.14h9.52v1.1H75.87Z"/><path class="cls-3" d="M85.87,108.14h9.52v1.1H85.87Z"/><path class="cls-3" d="M97,93.94a1.14,1.14,0,0,1,2.27,0,1.14,1.14,0,0,1-2.27,0Zm.3,3.06h1.64v9.72H97.27Z"/><path class="cls-3" d="M102.19,97h1.36l.13,1.4h.06A4.66,4.66,0,0,1,107,96.76c2,0,3,1.32,3,3.8v6.16h-1.65v-5.94c0-1.82-.54-2.59-1.83-2.59-1,0-1.68.51-2.66,1.49v7h-1.64Z"/><path class="cls-3" d="M112.82,93.94a1.14,1.14,0,0,1,2.28,0,1.14,1.14,0,0,1-2.28,0Zm.31,3.06h1.64v9.72h-1.64Z"/><path class="cls-3" d="M118.33,103.72V98.34h-1.44V97.1l1.52-.1.2-2.73H120V97h2.63v1.34H120v5.41c0,1.19.38,1.87,1.5,1.87a3.22,3.22,0,0,0,1.11-.26l.32,1.24a5.77,5.77,0,0,1-1.81.36C119,107,118.33,105.65,118.33,103.72Z"/><path class="cls-3" d="M123.41,108.14h9.52v1.1h-9.52Z"/><path class="cls-3" d="M133.41,108.14h9.52v1.1h-9.52Z"/><rect class="cls-8" x="36.76" y="131.02" width="251.75" height="176.13" rx="3.82"/><path class="cls-3" d="M49.86,157.41l.81-1.08a4.37,4.37,0,0,0,2.87,1.15c1.27,0,1.91-.68,1.91-1.51,0-1-1.15-1.45-2.23-1.85-1.36-.49-2.9-1.16-2.9-2.8s1.25-2.76,3.36-2.76a4.89,4.89,0,0,1,3,1.09l-.78,1a3.69,3.69,0,0,0-2.22-.86c-1.23,0-1.79.65-1.79,1.39,0,.93,1.05,1.28,2.16,1.69,1.4.53,3,1.1,3,3,0,1.58-1.25,2.89-3.55,2.89A5.84,5.84,0,0,1,49.86,157.41Z"/><path class="cls-3" d="M59.2,155.51v-5.37H57.76v-1.25l1.52-.1.19-2.72h1.38v2.72h2.63v1.35H60.85v5.4c0,1.19.38,1.88,1.5,1.88a3.27,3.27,0,0,0,1.11-.26l.32,1.24a6.07,6.07,0,0,1-1.81.36C59.9,158.76,59.2,157.45,59.2,155.51Z"/><path class="cls-3" d="M64.65,156c0-2.11,1.83-3.17,6-3.62,0-1.25-.42-2.46-2-2.46a5.33,5.33,0,0,0-2.9,1l-.65-1.13a7.21,7.21,0,0,1,3.82-1.26c2.38,0,3.38,1.57,3.38,4v6H70.91l-.14-1.16h0a5.18,5.18,0,0,1-3.22,1.4A2.64,2.64,0,0,1,64.65,156Zm6,.16v-2.7c-3.25.39-4.36,1.19-4.36,2.43s.75,1.55,1.71,1.55A4,4,0,0,0,70.62,156.15Z"/><path class="cls-3" d="M75.33,148.79h1.36l.14,1.78h.06a3.32,3.32,0,0,1,2.76-2,2.36,2.36,0,0,1,1,.19l-.31,1.45a2.58,2.58,0,0,0-.94-.16c-.82,0-1.8.59-2.46,2.24v6.24H75.33Z"/><path class="cls-3" d="M82.56,155.51v-5.37H81.12v-1.25l1.52-.1.19-2.72h1.38v2.72h2.63v1.35H84.21v5.4c0,1.19.38,1.88,1.5,1.88a3.27,3.27,0,0,0,1.11-.26l.32,1.24a6.07,6.07,0,0,1-1.81.36C83.26,158.76,82.56,157.45,82.56,155.51Z"/><rect class="cls-7" x="126.25" y="179.6" width="143.36" height="35.87" rx="3.82"/><rect class="cls-1" x="126.25" y="221.58" width="143.36" height="35.87" rx="3.82"/><rect class="cls-7" x="125.75" y="263.55" width="143.36" height="35.87" rx="3.82"/><path class="cls-3" d="M173.69,243.51l.81-1.09a4.4,4.4,0,0,0,2.87,1.16c1.28,0,1.91-.68,1.91-1.51,0-1-1.15-1.45-2.22-1.85-1.36-.49-2.9-1.17-2.9-2.81s1.25-2.76,3.35-2.76a5,5,0,0,1,3,1.1l-.79,1.05a3.69,3.69,0,0,0-2.22-.86c-1.22,0-1.79.65-1.79,1.39,0,.92,1.06,1.28,2.16,1.69,1.4.53,3,1.1,3,2.95,0,1.57-1.25,2.89-3.54,2.89A5.86,5.86,0,0,1,173.69,243.51Z"/><path class="cls-3" d="M183.15,230.37h1.64v3.89l-.06,2a4.64,4.64,0,0,1,3.23-1.61c2,0,3,1.33,3,3.81v6.16h-1.64v-6c0-1.81-.55-2.59-1.84-2.59-1,0-1.68.51-2.66,1.5v7h-1.64Z"/><path class="cls-3" d="M193.31,239.77c0-3.25,2.12-5.12,4.5-5.12s4.51,1.87,4.51,5.12-2.12,5.09-4.51,5.09S193.31,243,193.31,239.77Zm7.31,0c0-2.23-1.14-3.75-2.81-3.75s-2.8,1.52-2.8,3.75,1.13,3.72,2.8,3.72S200.62,242,200.62,239.77Z"/><path class="cls-3" d="M203.63,234.89h1.68l1.44,5.62c.21.93.39,1.8.58,2.71h.08c.21-.91.42-1.8.66-2.71l1.5-5.62h1.61l1.51,5.62c.24.93.45,1.8.68,2.71h.08c.21-.91.39-1.78.6-2.71l1.42-5.62H217l-2.61,9.73h-2l-1.4-5.23c-.23-.92-.42-1.81-.66-2.8h-.08c-.21,1-.4,1.91-.66,2.83l-1.37,5.2h-1.92Z"/><path class="cls-3" d="M145.87,202.93h-.06l-.15,1h-1.32V189.68H146v3.9l-.06,1.74A4.92,4.92,0,0,1,149,194c2.51,0,3.86,1.95,3.86,4.94,0,3.32-2,5.26-4.21,5.26A4.39,4.39,0,0,1,145.87,202.93Zm5.28-4c0-2.15-.73-3.59-2.56-3.59a3.91,3.91,0,0,0-2.6,1.33v5.09a3.74,3.74,0,0,0,2.37,1C150,202.79,151.15,201.34,151.15,198.94Z"/><path class="cls-3" d="M154.68,199.08c0-3.16,2.13-5.11,4.37-5.11,2.48,0,3.88,1.78,3.88,4.56a6,6,0,0,1-.07.93h-6.55c.12,2.06,1.37,3.4,3.23,3.4a4.23,4.23,0,0,0,2.42-.78l.59,1.08a5.7,5.7,0,0,1-3.21,1C156.74,204.17,154.68,202.27,154.68,199.08Zm6.8-.8c0-1.94-.88-3-2.4-3s-2.59,1.09-2.79,3Z"/><path class="cls-3" d="M164.23,194.3l1.4-.09h3.63v1.34h-5Zm1.32-1.63c0-2,.9-3.23,2.85-3.23a4.44,4.44,0,0,1,1.62.33l-.35,1.26a2.69,2.69,0,0,0-1.1-.25c-.92,0-1.37.64-1.37,1.9v11.25h-1.65Z"/><path class="cls-3" d="M170.2,199.08c0-3.24,2.12-5.11,4.51-5.11s4.5,1.87,4.5,5.11-2.12,5.09-4.5,5.09S170.2,202.3,170.2,199.08Zm7.31,0c0-2.23-1.13-3.74-2.8-3.74s-2.81,1.51-2.81,3.74,1.13,3.72,2.81,3.72S177.51,201.31,177.51,199.08Z"/><path class="cls-3" d="M181.76,194.21h1.36l.14,1.77h.06a3.32,3.32,0,0,1,2.76-2,2.22,2.22,0,0,1,1,.2l-.31,1.44a2.58,2.58,0,0,0-.94-.16c-.82,0-1.8.59-2.46,2.24v6.24h-1.65Z"/><path class="cls-3" d="M187.78,199.08c0-3.16,2.13-5.11,4.37-5.11,2.48,0,3.88,1.78,3.88,4.56a6,6,0,0,1-.07.93h-6.55c.12,2.06,1.37,3.4,3.23,3.4a4.23,4.23,0,0,0,2.42-.78l.59,1.08a5.72,5.72,0,0,1-3.21,1C189.84,204.17,187.78,202.27,187.78,199.08Zm6.8-.8c0-1.94-.88-3-2.4-3s-2.59,1.09-2.79,3Z"/><path class="cls-3" d="M197,205.35h9.52v1.1H197Z"/><path class="cls-3" d="M207.34,202.82l.82-1.08a4.37,4.37,0,0,0,2.87,1.15c1.27,0,1.91-.68,1.91-1.51,0-1-1.15-1.44-2.23-1.85-1.36-.49-2.9-1.16-2.9-2.8s1.25-2.76,3.36-2.76a4.89,4.89,0,0,1,3,1.09l-.79,1.05a3.67,3.67,0,0,0-2.21-.86c-1.23,0-1.79.65-1.79,1.39,0,.93,1,1.28,2.15,1.69,1.41.53,3,1.1,3,2.95,0,1.58-1.25,2.89-3.55,2.89A5.89,5.89,0,0,1,207.34,202.82Z"/><path class="cls-3" d="M216.8,189.68h1.65v3.9l-.06,2a4.64,4.64,0,0,1,3.23-1.6c2,0,3,1.32,3,3.8v6.16h-1.65v-6c0-1.81-.55-2.59-1.83-2.59-1,0-1.69.51-2.66,1.5v7H216.8Z"/><path class="cls-3" d="M227,199.08c0-3.24,2.12-5.11,4.51-5.11s4.5,1.87,4.5,5.11-2.12,5.09-4.5,5.09S227,202.3,227,199.08Zm7.31,0c0-2.23-1.13-3.74-2.8-3.74s-2.81,1.51-2.81,3.74,1.13,3.72,2.81,3.72S234.27,201.31,234.27,199.08Z"/><path class="cls-3" d="M237.28,194.21H239l1.45,5.61c.21.93.39,1.8.57,2.71h.08c.21-.91.42-1.8.66-2.71l1.51-5.61h1.6l1.52,5.61c.24.93.45,1.8.67,2.71h.08c.21-.91.4-1.78.61-2.71l1.41-5.61h1.57l-2.61,9.72h-2l-1.4-5.23c-.24-.92-.42-1.81-.66-2.8h-.08c-.21,1-.41,1.91-.67,2.83l-1.36,5.2H240Z"/><path class="cls-3" d="M152.72,284.51c0-2.11,1.82-3.17,6-3.62,0-1.26-.42-2.46-2-2.46a5.36,5.36,0,0,0-2.9,1l-.64-1.13a7.19,7.19,0,0,1,3.82-1.27c2.37,0,3.37,1.58,3.37,4v6H159l-.13-1.16h-.06a5.18,5.18,0,0,1-3.21,1.4A2.64,2.64,0,0,1,152.72,284.51Zm6,.16V282c-3.26.39-4.36,1.19-4.36,2.43s.75,1.55,1.7,1.55A4,4,0,0,0,158.69,284.67Z"/><path class="cls-3" d="M168.8,284v-5.38h-6.45v-1.24l1.39-.1h5.14l.19-2.72h1.38v2.72h2.63v1.34h-2.63v5.41c0,1.19.38,1.88,1.5,1.88a3.27,3.27,0,0,0,1.11-.26l.32,1.24a6.07,6.07,0,0,1-1.81.36C169.5,287.28,168.8,286,168.8,284Zm-5.13-8.25c0-2,.9-3.23,2.85-3.23a4.39,4.39,0,0,1,1.61.33l-.34,1.26a2.7,2.7,0,0,0-1.11-.25c-.91,0-1.36.64-1.36,1.9V287h-1.65Z"/><path class="cls-3" d="M174.28,282.19c0-3.17,2.13-5.12,4.37-5.12,2.48,0,3.88,1.79,3.88,4.57a5,5,0,0,1-.08.93H175.9c.12,2.06,1.38,3.4,3.23,3.4a4.21,4.21,0,0,0,2.42-.78l.59,1.08a5.67,5.67,0,0,1-3.21,1C176.34,287.28,174.28,285.38,174.28,282.19Zm6.79-.8c0-1.95-.87-3-2.39-3s-2.59,1.09-2.79,3Z"/><path class="cls-3" d="M184.92,277.31h1.36l.14,1.78h.05a3.35,3.35,0,0,1,2.77-2,2.28,2.28,0,0,1,1,.2l-.3,1.45a2.67,2.67,0,0,0-.95-.16c-.82,0-1.8.59-2.46,2.23V287h-1.64Z"/><path class="cls-3" d="M190.46,288.46H200v1.09h-9.52Z"/><path class="cls-3" d="M200.78,285.93l.81-1.08a4.41,4.41,0,0,0,2.87,1.15c1.28,0,1.91-.68,1.91-1.51,0-1-1.14-1.45-2.22-1.85-1.36-.49-2.9-1.16-2.9-2.81s1.25-2.76,3.35-2.76a5,5,0,0,1,3,1.1l-.79,1.05a3.69,3.69,0,0,0-2.22-.86c-1.22,0-1.79.65-1.79,1.39,0,.93,1.06,1.28,2.16,1.69,1.4.53,3,1.1,3,2.95,0,1.57-1.26,2.89-3.55,2.89A5.86,5.86,0,0,1,200.78,285.93Z"/><path class="cls-3" d="M210.24,272.79h1.64v3.9l0,2a4.63,4.63,0,0,1,3.22-1.61c2,0,3,1.33,3,3.81V287h-1.64v-6c0-1.81-.55-2.59-1.84-2.59-1,0-1.68.51-2.66,1.5v7h-1.64Z"/><path class="cls-3" d="M220.4,282.19c0-3.25,2.12-5.12,4.5-5.12s4.51,1.87,4.51,5.12-2.12,5.09-4.51,5.09S220.4,285.41,220.4,282.19Zm7.31,0c0-2.23-1.14-3.75-2.81-3.75s-2.8,1.52-2.8,3.75,1.13,3.72,2.8,3.72S227.71,284.42,227.71,282.19Z"/><path class="cls-3" d="M230.72,277.31h1.68l1.44,5.62c.21.93.39,1.8.58,2.71h.08c.21-.91.42-1.8.66-2.71l1.5-5.62h1.61l1.51,5.62c.24.93.45,1.8.68,2.71h.08c.21-.91.39-1.78.6-2.71l1.42-5.62h1.57L241.52,287h-2l-1.4-5.23c-.23-.92-.42-1.81-.65-2.8h-.08c-.22,1-.41,1.91-.67,2.83l-1.37,5.2h-1.92Z"/><line class="cls-4" x1="340.41" y1="48.35" x2="340.41" y2="50.35"/><line class="cls-9" x1="340.41" y1="54.44" x2="340.41" y2="142.38"/><line class="cls-4" x1="340.41" y1="144.42" x2="340.41" y2="146.42"/><path class="cls-6" d="M340.41,152.46a30,30,0,0,0-4.76-8.55l4.76,1.72,4.75-1.72A30.18,30.18,0,0,0,340.41,152.46Z"/><path class="cls-3" d="M357.76,103.15V93.88h-2.25v-1l2.28-.12.17-4.17h1.13v4.17h4.17v1.16h-4.17v9.36c0,1.84.46,3.09,2.44,3.09a5.14,5.14,0,0,0,1.81-.46l.35,1.07a8.17,8.17,0,0,1-2.35.54C358.57,107.48,357.76,105.73,357.76,103.15Z"/><rect class="cls-8" x="36.76" y="380.67" width="143.36" height="78.89" rx="3.82"/><path class="cls-3" d="M48.09,390.76h7.57v1.42h-5.9v4.11h5v1.42h-5v4.77h6.09v1.41H48.09Z"/><path class="cls-3" d="M56.87,394.17h1.7l1.84,5.52c.29.95.6,1.94.89,2.87h.08c.3-.93.61-1.92.9-2.87l1.84-5.52h1.61l-3.44,9.72H60.38Z"/><path class="cls-3" d="M66.81,399c0-3.16,2.13-5.11,4.37-5.11,2.48,0,3.88,1.78,3.88,4.56a6.13,6.13,0,0,1-.07.94H68.44c.12,2.06,1.38,3.39,3.23,3.39a4.23,4.23,0,0,0,2.42-.78l.59,1.08a5.7,5.7,0,0,1-3.21,1C68.88,404.13,66.81,402.24,66.81,399Zm6.8-.79c0-1.95-.88-3-2.4-3-1.37,0-2.59,1.1-2.79,3Z"/><path class="cls-3" d="M77.45,394.17h1.36l.14,1.4H79a4.62,4.62,0,0,1,3.26-1.64c2,0,3,1.32,3,3.8v6.16H83.59v-5.95c0-1.81-.55-2.58-1.83-2.58-1,0-1.69.5-2.66,1.49v7H77.45Z"/><path class="cls-3" d="M88.68,400.89v-5.38H87.24v-1.25l1.52-.09.19-2.73h1.38v2.73H93v1.34H90.33v5.4c0,1.19.38,1.88,1.5,1.88a3.27,3.27,0,0,0,1.11-.26l.32,1.24a5.77,5.77,0,0,1-1.81.36C89.38,404.13,88.68,402.82,88.68,400.89Z"/><path class="cls-3" d="M99.15,401.94v-12.3h1.65v12.42c0,.5.22.7.46.7a1.46,1.46,0,0,0,.36,0l.22,1.26a2.72,2.72,0,0,1-1,.15C99.66,404.13,99.15,403.35,99.15,401.94Z"/><path class="cls-3" d="M103.53,399c0-3.24,2.12-5.11,4.51-5.11s4.5,1.87,4.5,5.11-2.12,5.09-4.5,5.09S103.53,402.26,103.53,399Zm7.31,0c0-2.23-1.13-3.74-2.8-3.74s-2.81,1.51-2.81,3.74,1.13,3.72,2.81,3.72S110.84,401.27,110.84,399Z"/><path class="cls-3" d="M114.37,399c0-3.24,2.12-5.11,4.51-5.11s4.5,1.87,4.5,5.11-2.12,5.09-4.5,5.09S114.37,402.26,114.37,399Zm7.31,0c0-2.23-1.13-3.74-2.8-3.74s-2.81,1.51-2.81,3.74,1.13,3.72,2.81,3.72S121.68,401.27,121.68,399Z"/><path class="cls-3" d="M125.93,394.17h1.36l.14,1.12h.06a5.11,5.11,0,0,1,3.1-1.36c2.51,0,3.85,1.95,3.85,4.95,0,3.32-2,5.25-4.21,5.25a4.47,4.47,0,0,1-2.7-1.12l0,1.69V408h-1.65Zm6.81,4.73c0-2.15-.73-3.59-2.56-3.59a4,4,0,0,0-2.6,1.33v5.1a3.78,3.78,0,0,0,2.37,1C131.55,402.75,132.74,401.3,132.74,398.9Z"/><rect class="cls-1" x="212.52" y="380.67" width="94.13" height="35.87" rx="3.82"/><path class="cls-3" d="M222,390.93h1.68v6.59h.05l5.46-6.59h1.88l-4.1,5,4.74,8.13h-1.87l-3.91-6.82-2.25,2.67v4.15H222Z"/><path class="cls-3" d="M232.55,399.21c0-3.16,2.13-5.11,4.37-5.11,2.48,0,3.88,1.78,3.88,4.56a4.88,4.88,0,0,1-.08.93h-6.54c.11,2.06,1.37,3.4,3.23,3.4a4.23,4.23,0,0,0,2.42-.78l.59,1.08a5.73,5.73,0,0,1-3.22,1C234.61,404.3,232.55,402.4,232.55,399.21Zm6.8-.79c0-1.95-.88-3-2.4-3-1.37,0-2.59,1.09-2.79,3Z"/><path class="cls-3" d="M242.32,408.05l.32-1.31a2.38,2.38,0,0,0,.74.14c1.1,0,1.79-.88,2.19-2.08l.22-.72-3.9-9.74h1.7l2,5.38c.31.84.63,1.84,1,2.74h.08c.27-.89.55-1.88.82-2.74l1.73-5.38h1.61l-3.66,10.52c-.69,1.93-1.69,3.39-3.64,3.39A3.1,3.1,0,0,1,242.32,408.05Z"/><path class="cls-3" d="M254.15,403.06h-.05l-.15,1h-1.32V389.81h1.65v3.9l-.06,1.74a4.89,4.89,0,0,1,3.06-1.35c2.51,0,3.86,1.95,3.86,4.94,0,3.32-2,5.26-4.21,5.26A4.41,4.41,0,0,1,254.15,403.06Zm5.29-4c0-2.15-.73-3.59-2.56-3.59a3.91,3.91,0,0,0-2.6,1.33v5.09a3.74,3.74,0,0,0,2.36,1C258.25,402.92,259.44,401.47,259.44,399.07Z"/><path class="cls-3" d="M263,399.21c0-3.24,2.12-5.11,4.5-5.11S272,396,272,399.21s-2.12,5.09-4.51,5.09S263,402.43,263,399.21Zm7.31,0c0-2.23-1.13-3.74-2.81-3.74s-2.8,1.51-2.8,3.74,1.13,3.72,2.8,3.72S270.28,401.44,270.28,399.21Z"/><path class="cls-3" d="M273.65,401.54c0-2.12,1.83-3.18,6-3.63,0-1.25-.42-2.46-2-2.46a5.39,5.39,0,0,0-2.9,1l-.64-1.12a7.13,7.13,0,0,1,3.82-1.27c2.37,0,3.38,1.57,3.38,4v6h-1.36l-.14-1.16h-.06a5.15,5.15,0,0,1-3.21,1.4A2.64,2.64,0,0,1,273.65,401.54Zm6,.15V399c-3.26.39-4.36,1.19-4.36,2.43S276,403,277,403A4,4,0,0,0,279.62,401.69Z"/><path class="cls-3" d="M284.33,394.34h1.36l.14,1.77h.05a3.34,3.34,0,0,1,2.77-2,2.22,2.22,0,0,1,1,.2l-.31,1.44a2.61,2.61,0,0,0-.94-.16c-.83,0-1.81.59-2.46,2.24v6.24h-1.65Z"/><path class="cls-3" d="M290.38,399.21c0-3.15,2-5.11,4.21-5.11a4,4,0,0,1,2.72,1.12l-.07-1.67v-3.74h1.65v14.25h-1.36l-.14-1.15h-.06a4.27,4.27,0,0,1-2.95,1.39C292,404.3,290.38,402.45,290.38,399.21Zm6.86,2.38v-5.1a3.42,3.42,0,0,0-2.37-1c-1.56,0-2.79,1.5-2.79,3.72s1,3.72,2.67,3.72A3.34,3.34,0,0,0,297.24,401.59Z"/><rect class="cls-1" x="212.52" y="423.69" width="94.13" height="35.87" rx="3.82"/><path class="cls-3" d="M235,434.94h2l2.51,7c.32.9.62,1.82.94,2.74h.08c.31-.92.59-1.84.9-2.74l2.49-7h2v13.13h-1.55v-7.23c0-1.14.13-2.72.21-3.88h-.08l-1,3L241,446.75h-1.11L237.41,440l-1-3h-.08c.08,1.16.21,2.74.21,3.88v7.23H235Z"/><path class="cls-3" d="M248.65,443.22c0-3.24,2.12-5.11,4.5-5.11s4.51,1.87,4.51,5.11-2.12,5.09-4.51,5.09S248.65,446.44,248.65,443.22Zm7.31,0c0-2.22-1.13-3.74-2.81-3.74s-2.8,1.52-2.8,3.74,1.13,3.72,2.8,3.72S256,445.45,256,443.22Z"/><path class="cls-3" d="M260.08,444.51v-6.16h1.65v5.95c0,1.81.54,2.59,1.83,2.59,1,0,1.68-.5,2.6-1.64v-6.9h1.65v9.72h-1.36l-.14-1.52h-.05a4.14,4.14,0,0,1-3.21,1.76C261,448.31,260.08,447,260.08,444.51Z"/><path class="cls-3" d="M270,447l.82-1.08A4.37,4.37,0,0,0,273.7,447c1.27,0,1.91-.68,1.91-1.51,0-1-1.15-1.44-2.23-1.84-1.36-.5-2.9-1.17-2.9-2.81s1.25-2.76,3.36-2.76a5,5,0,0,1,3,1.09l-.79,1.06a3.62,3.62,0,0,0-2.22-.87c-1.22,0-1.79.65-1.79,1.4,0,.92,1.06,1.27,2.16,1.68,1.41.53,3,1.1,3,2.95,0,1.58-1.25,2.89-3.55,2.89A5.83,5.83,0,0,1,270,447Z"/><path class="cls-3" d="M278.75,443.22c0-3.16,2.13-5.11,4.37-5.11,2.48,0,3.88,1.78,3.88,4.56a5,5,0,0,1-.08.94h-6.54c.11,2.06,1.37,3.39,3.23,3.39a4.3,4.3,0,0,0,2.42-.77l.58,1.08a5.74,5.74,0,0,1-3.21,1C280.81,448.31,278.75,446.42,278.75,443.22Zm6.8-.79c0-1.95-.88-3-2.4-3-1.37,0-2.59,1.1-2.79,3Z"/><line class="cls-4" x1="190.81" y1="399.37" x2="200.86" y2="399.37"/><path class="cls-6" d="M184.77,399.37a30.45,30.45,0,0,1,8.55,4.76l-1.72-4.76,1.72-4.75A30.18,30.18,0,0,1,184.77,399.37Z"/><path class="cls-6" d="M206.89,399.37a30.59,30.59,0,0,0-8.55,4.76l1.72-4.76-1.72-4.75A30.31,30.31,0,0,0,206.89,399.37Z"/><line class="cls-4" x1="190.81" y1="443.08" x2="200.86" y2="443.08"/><path class="cls-6" d="M184.77,443.08a30,30,0,0,1,8.55,4.76l-1.72-4.76,1.72-4.75A30.18,30.18,0,0,1,184.77,443.08Z"/><path class="cls-6" d="M206.89,443.08a30.1,30.1,0,0,0-8.55,4.76l1.72-4.76-1.72-4.75A30.31,30.31,0,0,0,206.89,443.08Z"/><path class="cls-3" d="M182.59,345.07v-7h2.95v7.3c0,2.56.81,3.44,2.26,3.44s2.31-.88,2.31-3.44v-7.3H193v7c0,4.38-1.78,6.28-5.16,6.28S182.59,349.45,182.59,345.07Z"/><path class="cls-3" d="M196.12,347.5v-4h-1.36v-2.2l1.52-.11.35-2.64h2.43v2.64h2.38v2.31h-2.38v4c0,1.12.51,1.58,1.28,1.58a3.08,3.08,0,0,0,.95-.19l.46,2.13a6.91,6.91,0,0,1-2.2.36C197.09,351.35,196.12,349.8,196.12,347.5Z"/><path class="cls-3" d="M203.15,338.2a1.71,1.71,0,1,1,1.71,1.54A1.57,1.57,0,0,1,203.15,338.2Zm.23,3h2.94v9.92h-2.94Z"/><path class="cls-3" d="M208.9,348V337.1h2.94v11c0,.63.29.83.53.83a1.23,1.23,0,0,0,.36,0l.35,2.17a3.74,3.74,0,0,1-1.47.24C209.59,351.35,208.9,350,208.9,348Z"/><path class="cls-3" d="M214.39,338.2a1.71,1.71,0,1,1,1.7,1.54A1.57,1.57,0,0,1,214.39,338.2Zm.23,3h2.94v9.92h-2.94Z"/><path class="cls-3" d="M220.54,347.5v-4h-1.36v-2.2l1.52-.11.35-2.64h2.43v2.64h2.38v2.31h-2.38v4c0,1.12.51,1.58,1.28,1.58a3.08,3.08,0,0,0,1-.19l.46,2.13a6.91,6.91,0,0,1-2.2.36C221.51,351.35,220.54,349.8,220.54,347.5Z"/><path class="cls-3" d="M227.5,354.79l.52-2.24a2.94,2.94,0,0,0,.67.13,1.7,1.7,0,0,0,1.74-1.3l.15-.52-3.83-9.67h2.95l1.42,4.27c.29.9.52,1.84.78,2.81H232c.22-.94.45-1.88.69-2.81l1.21-4.27h2.81l-3.44,10c-.94,2.49-2,3.77-4.34,3.77A4.54,4.54,0,0,1,227.5,354.79Z"/><path class="cls-3" d="M242.47,338.07h4.69c2.77,0,5,1,5,4.06s-2.26,4.29-5,4.29h-1.75v4.69h-2.94Zm4.45,6c1.55,0,2.38-.66,2.38-1.95s-.83-1.71-2.38-1.71h-1.51v3.66Zm-.3,1.56,2-1.88,4.16,7.35h-3.3Z"/><path class="cls-3" d="M254.39,347.35v-6.16h2.94V347c0,1.43.38,1.88,1.23,1.88a2,2,0,0,0,1.76-1.09v-6.57h2.94v9.92h-2.4l-.21-1.37h-.07a3.9,3.9,0,0,1-3.12,1.61C255.31,351.35,254.39,349.83,254.39,347.35Z"/><path class="cls-3" d="M265.84,341.19h2.4l.21,1.25h.07a4.57,4.57,0,0,1,3.19-1.49c2.16,0,3.08,1.52,3.08,4v6.16h-2.94v-5.78c0-1.43-.38-1.88-1.23-1.88a2.54,2.54,0,0,0-1.84,1v6.69h-2.94Z"/><path class="cls-3" d="M277.28,341.19h2.4l.21,1.25H280a4.57,4.57,0,0,1,3.19-1.49c2.16,0,3.08,1.52,3.08,4v6.16h-2.94v-5.78c0-1.43-.38-1.88-1.23-1.88a2.54,2.54,0,0,0-1.84,1v6.69h-2.94Z"/><path class="cls-3" d="M288.49,338.2a1.71,1.71,0,1,1,1.7,1.54A1.57,1.57,0,0,1,288.49,338.2Zm.23,3h2.94v9.92h-2.94Z"/><path class="cls-3" d="M294.24,341.19h2.4l.21,1.25h.07a4.57,4.57,0,0,1,3.19-1.49c2.16,0,3.08,1.52,3.08,4v6.16h-2.94v-5.78c0-1.43-.38-1.88-1.23-1.88a2.54,2.54,0,0,0-1.84,1v6.69h-2.94Z"/><path class="cls-3" d="M305.07,352.82a2.3,2.3,0,0,1,1.41-2v-.08a1.93,1.93,0,0,1-.91-1.69,2.44,2.44,0,0,1,1.11-1.86v-.08a3.16,3.16,0,0,1-1.34-2.57c0-2.38,2-3.59,4.11-3.59a5,5,0,0,1,1.54.24h3.62v2.14H313a2.58,2.58,0,0,1,.34,1.31c0,2.28-1.74,3.33-3.91,3.33a4.32,4.32,0,0,1-1.21-.19.83.83,0,0,0-.35.74c0,.49.4.73,1.49.73H311c2.43,0,3.78.74,3.78,2.52,0,2.06-2.14,3.56-5.55,3.56C306.91,355.33,305.07,354.58,305.07,352.82Zm6.89-.55c0-.63-.54-.77-1.51-.77h-1a5.25,5.25,0,0,1-1.4-.13,1.27,1.27,0,0,0-.53,1c0,.75.87,1.14,2.2,1.14S312,353,312,352.27Zm-1.16-7.73c0-1.06-.57-1.61-1.35-1.61s-1.36.55-1.36,1.61.59,1.65,1.36,1.65S310.8,345.63,310.8,344.54Z"/><path class="cls-3" d="M167.59,498.72v-7h2.95V499c0,2.56.8,3.44,2.26,3.44s2.31-.88,2.31-3.44v-7.29H178v7c0,4.38-1.78,6.28-5.15,6.28S167.59,503.1,167.59,498.72Z"/><path class="cls-3" d="M181.12,501.15v-4h-1.36V495l1.52-.11.34-2.64h2.44v2.64h2.38v2.31h-2.38v4c0,1.12.51,1.58,1.28,1.58a3,3,0,0,0,.94-.19l.47,2.13a6.92,6.92,0,0,1-2.21.36C182.09,505,181.12,503.45,181.12,501.15Z"/><path class="cls-3" d="M188.15,491.85a1.71,1.71,0,1,1,1.7,1.54A1.57,1.57,0,0,1,188.15,491.85Zm.23,3h2.94v9.92h-2.94Z"/><path class="cls-3" d="M193.9,501.68V490.75h2.94V501.8c0,.63.29.83.53.83a1.3,1.3,0,0,0,.36,0l.35,2.17a3.8,3.8,0,0,1-1.48.24C194.59,505,193.9,503.69,193.9,501.68Z"/><path class="cls-3" d="M199.39,491.85a1.71,1.71,0,1,1,1.7,1.54A1.57,1.57,0,0,1,199.39,491.85Zm.23,3h2.94v9.92h-2.94Z"/><path class="cls-3" d="M205.53,501.15v-4h-1.35V495l1.52-.11.34-2.64h2.44v2.64h2.37v2.31h-2.37v4c0,1.12.51,1.58,1.28,1.58a3,3,0,0,0,.94-.19l.47,2.13A6.92,6.92,0,0,1,209,505C206.51,505,205.53,503.45,205.53,501.15Z"/><path class="cls-3" d="M212.5,508.44l.52-2.24a2.75,2.75,0,0,0,.67.13,1.68,1.68,0,0,0,1.73-1.3l.15-.52-3.83-9.67h3l1.42,4.27c.28.9.52,1.84.78,2.81H217c.22-.94.44-1.88.69-2.81l1.2-4.27h2.82l-3.45,10c-.94,2.49-2,3.77-4.33,3.77A4.49,4.49,0,0,1,212.5,508.44Z"/><path class="cls-3" d="M226.62,503.12l1.69-2a5.24,5.24,0,0,0,3.2,1.36c1.24,0,1.84-.49,1.84-1.26s-.74-1.08-1.88-1.55l-1.7-.73a3.78,3.78,0,0,1-2.63-3.55c0-2.16,1.93-3.88,4.65-3.88a6,6,0,0,1,4.19,1.7l-1.49,1.86a4.22,4.22,0,0,0-2.7-1c-1,0-1.67.42-1.67,1.17s.86,1.09,2,1.54l1.66.68a3.58,3.58,0,0,1,2.59,3.54c0,2.17-1.8,4-4.91,4A7.18,7.18,0,0,1,226.62,503.12Z"/><path class="cls-3" d="M238.34,490.75h2.94v3.42l-.14,1.8a4.5,4.5,0,0,1,3.07-1.37c2.16,0,3.08,1.52,3.08,4v6.16h-2.94V499c0-1.43-.39-1.88-1.24-1.88a2.52,2.52,0,0,0-1.83,1v6.69h-2.94Z"/><path class="cls-3" d="M249.66,501v-6.16h2.94v5.78c0,1.43.39,1.88,1.24,1.88a2,2,0,0,0,1.76-1.09v-6.57h2.94v9.92h-2.4l-.21-1.37h-.07a3.88,3.88,0,0,1-3.12,1.61C250.58,505,249.66,503.48,249.66,501Z"/><path class="cls-3" d="M261.51,501.15v-4h-1.35V495l1.52-.11.34-2.64h2.44v2.64h2.37v2.31h-2.37v4c0,1.12.51,1.58,1.28,1.58a3,3,0,0,0,.94-.19l.47,2.13a7,7,0,0,1-2.21.36C262.49,505,261.51,503.45,261.51,501.15Z"/><path class="cls-3" d="M267.91,499.8c0-3.24,2-5.2,4.11-5.2a3.32,3.32,0,0,1,2.44,1l-.11-1.5v-3.38h2.94v14h-2.4l-.21-1h-.07A4,4,0,0,1,272,505C269.5,505,267.91,503,267.91,499.8Zm6.44,1.91v-4.08a2.43,2.43,0,0,0-1.64-.63c-1,0-1.79.88-1.79,2.77s.67,2.83,1.81,2.83A1.9,1.9,0,0,0,274.35,501.71Z"/><path class="cls-3" d="M279.3,499.8a4.85,4.85,0,1,1,4.83,5.2A4.86,4.86,0,0,1,279.3,499.8Zm6.66,0c0-1.71-.61-2.83-1.83-2.83s-1.82,1.12-1.82,2.83.61,2.83,1.82,2.83S286,501.52,286,499.8Z"/><path class="cls-3" d="M290,494.84h2.92l1,4.59c.17,1,.28,1.95.44,2.95h.08c.18-1,.35-2,.59-2.95l1.08-4.59h2.56l1.11,4.59c.24,1,.42,1.95.63,2.95h.08c.17-1,.28-2,.45-2.95l.94-4.59h2.72l-2.37,9.92h-3.44l-.91-4c-.19-.92-.35-1.84-.53-2.91h-.08c-.18,1.07-.32,2-.51,2.91l-.87,4h-3.36Z"/><path class="cls-3" d="M306.34,494.84h2.4l.21,1.26H309a4.54,4.54,0,0,1,3.19-1.5c2.16,0,3.08,1.52,3.08,4v6.16h-2.94V499c0-1.43-.39-1.88-1.24-1.88a2.52,2.52,0,0,0-1.83,1v6.69h-2.94Z"/><line class="cls-4" x1="108.45" y1="481.77" x2="108.45" y2="483.77"/><line class="cls-10" x1="108.45" y1="487.77" x2="108.45" y2="557.76"/><line class="cls-4" x1="108.45" y1="559.76" x2="108.45" y2="561.76"/><path class="cls-6" d="M108.45,567.8a30.59,30.59,0,0,0-4.76-8.55l4.76,1.72,4.75-1.72A30.31,30.31,0,0,0,108.45,567.8Z"/><rect class="cls-8" x="36.76" y="512.53" width="143.36" height="35.87" rx="3.82"/><path class="cls-3" d="M50.21,531.59c0-3.25,2.19-5.12,4.68-5.12a4,4,0,0,1,2.84,1.15l-.84,1.08a2.8,2.8,0,0,0-1.93-.86c-1.76,0-3.05,1.52-3.05,3.75s1.22,3.72,3,3.72a3.47,3.47,0,0,0,2.28-1l.72,1.1a4.75,4.75,0,0,1-3.15,1.24C52.18,536.68,50.21,534.81,50.21,531.59Z"/><path class="cls-3" d="M60.05,534.48V522.19H61.7V534.6c0,.51.22.71.46.71a1.46,1.46,0,0,0,.36,0l.22,1.25a2.47,2.47,0,0,1-1,.16C60.56,536.68,60.05,535.89,60.05,534.48Z"/><path class="cls-3" d="M64.43,531.59c0-3.25,2.12-5.12,4.51-5.12s4.5,1.87,4.5,5.12-2.12,5.09-4.5,5.09S64.43,534.81,64.43,531.59Zm7.31,0c0-2.23-1.13-3.75-2.8-3.75s-2.81,1.52-2.81,3.75,1.13,3.72,2.81,3.72S71.74,533.82,71.74,531.59Z"/><path class="cls-3" d="M74.88,535.33l.81-1.09a4.38,4.38,0,0,0,2.87,1.16c1.27,0,1.91-.68,1.91-1.51,0-1-1.15-1.45-2.23-1.85-1.36-.5-2.9-1.17-2.9-2.81s1.25-2.76,3.36-2.76a4.9,4.9,0,0,1,3,1.1l-.79,1a3.64,3.64,0,0,0-2.21-.86c-1.23,0-1.79.65-1.79,1.39,0,.92,1,1.28,2.16,1.69,1.4.53,3,1.1,3,2.95,0,1.57-1.25,2.89-3.55,2.89A5.84,5.84,0,0,1,74.88,535.33Z"/><path class="cls-3" d="M83.61,531.59c0-3.17,2.13-5.12,4.37-5.12,2.48,0,3.88,1.78,3.88,4.57a6.09,6.09,0,0,1-.07.93H85.24c.12,2.06,1.37,3.4,3.23,3.4a4.23,4.23,0,0,0,2.42-.78l.59,1.08a5.72,5.72,0,0,1-3.21,1C85.67,536.68,83.61,534.78,83.61,531.59Zm6.8-.8c0-1.95-.88-3-2.4-3s-2.59,1.09-2.79,3Z"/><path class="cls-3" d="M24.54,23.22C24.54,17,27.93,13,32.68,13S40.82,17,40.82,23.22s-3.39,10.31-8.14,10.31S24.54,29.48,24.54,23.22Zm14.84,0c0-5.48-2.68-8.93-6.7-8.93S26,17.74,26,23.22s2.68,9.13,6.69,9.13S39.38,28.74,39.38,23.22Zm-7.59,9.93,1.49,0a5.27,5.27,0,0,0,5.31,3.47,7.4,7.4,0,0,0,2-.26l.31,1.19a9.26,9.26,0,0,1-2.43.34A6.75,6.75,0,0,1,31.79,33.15Z"/><path class="cls-3" d="M45.56,29.19V19.92H43.31v-1l2.28-.13.17-4.17h1.12v4.17h4.18v1.16H46.88v9.37c0,1.84.47,3.08,2.45,3.08a5.35,5.35,0,0,0,1.81-.45L51.49,33a8.5,8.5,0,0,1-2.36.54C46.37,33.53,45.56,31.77,45.56,29.19Z"/><path class="cls-3" d="M60.67,25.59V13.4h1.38v12c0,5.26,2.46,6.85,5.26,6.85s5.37-1.59,5.37-6.85v-12H74V25.59c0,6.17-3.27,7.94-6.68,7.94S60.67,31.76,60.67,25.59Z"/><path class="cls-3" d="M79.94,29.19V19.92H77.69v-1L80,18.76l.17-4.17h1.12v4.17h4.18v1.16H81.26v9.37c0,1.84.47,3.08,2.45,3.08a5.35,5.35,0,0,0,1.81-.45L85.87,33a8.5,8.5,0,0,1-2.36.54C80.75,33.53,79.94,31.77,79.94,29.19Z"/><path class="cls-3" d="M88.45,14.11a1.21,1.21,0,0,1,2.41,0,1.21,1.21,0,0,1-2.41,0ZM89,18.76h1.33V33.17H89Z"/><path class="cls-3" d="M95.83,31.24V11.59h1.33V31.42c0,.64.26.94.62.94a2.23,2.23,0,0,0,.54-.06l.22,1.08a2.9,2.9,0,0,1-1,.15C96.43,33.53,95.83,32.82,95.83,31.24Z"/><path class="cls-3" d="M102.43,14.11a1.21,1.21,0,0,1,2.41,0,1.21,1.21,0,0,1-2.41,0Zm.51,4.65h1.33V33.17h-1.33Z"/><path class="cls-3" d="M110.15,29.19V19.92H107.9v-1l2.28-.13.16-4.17h1.13v4.17h4.18v1.16h-4.18v9.37c0,1.84.46,3.08,2.45,3.08a5.47,5.47,0,0,0,1.81-.45l.34,1.07a8.36,8.36,0,0,1-2.35.54C111,33.53,110.15,31.77,110.15,29.19Z"/><path class="cls-3" d="M117.11,39.43l.31-1.15a3.47,3.47,0,0,0,1.17.24c1.76,0,3-1.63,3.7-3.83l.39-1.25-5.91-14.68h1.43l3.47,9.06c.48,1.22,1,2.76,1.57,4h.12c.46-1.28.92-2.82,1.34-4l3.06-9.06h1.36L123.43,35c-.8,2.4-2.26,4.75-4.85,4.75A3.7,3.7,0,0,1,117.11,39.43Z"/><path class="cls-3" d="M138.4,13.4h1.38V32h9.11v1.19H138.4Z"/><path class="cls-3" d="M151.75,14.11a1.21,1.21,0,0,1,2.41,0,1.21,1.21,0,0,1-2.41,0Zm.51,4.65h1.33V33.17h-1.33Z"/><path class="cls-3" d="M157.35,18.89l2-.13H164v1.16h-6.63Zm2-3.33c0-2.86,1.28-4.33,3.56-4.33a5.44,5.44,0,0,1,2.1.48l-.36,1.08a4,4,0,0,0-1.71-.4c-1.56,0-2.27,1.17-2.27,3.26V33.17h-1.32Z"/><path class="cls-3" d="M165.51,26c0-4.69,3.05-7.59,6.28-7.59,3.41,0,5.51,2.43,5.51,6.67a6.53,6.53,0,0,1-.07,1.08H166.87c0,3.64,2.18,6.23,5.42,6.23a6.5,6.5,0,0,0,3.87-1.27l.55,1a7.86,7.86,0,0,1-4.54,1.42C168.49,33.53,165.51,30.7,165.51,26Zm10.55-.93c0-3.68-1.67-5.51-4.26-5.51-2.43,0-4.64,2.06-4.94,5.51Z"/><path class="cls-3" d="M180,26c0-4.81,3.08-7.59,6.58-7.59a5.92,5.92,0,0,1,4.22,1.78l-.78.92a5,5,0,0,0-3.41-1.53c-3,0-5.22,2.63-5.22,6.42s2.07,6.37,5.2,6.37a5.74,5.74,0,0,0,3.86-1.66l.68.93a6.86,6.86,0,0,1-4.6,1.9C182.81,33.53,180,30.76,180,26Z"/><path class="cls-3" d="M192.89,39.43l.31-1.15a3.42,3.42,0,0,0,1.17.24c1.76,0,3-1.63,3.69-3.83l.4-1.25-5.92-14.68H194l3.47,9.06c.47,1.22,1,2.76,1.57,4h.12c.46-1.28.92-2.82,1.33-4l3.07-9.06h1.36L199.21,35c-.81,2.4-2.26,4.75-4.85,4.75A3.7,3.7,0,0,1,192.89,39.43Z"/><path class="cls-3" d="M206.79,26c0-4.81,3.08-7.59,6.58-7.59a5.92,5.92,0,0,1,4.22,1.78l-.78.92a5,5,0,0,0-3.41-1.53c-3,0-5.22,2.63-5.22,6.42s2.07,6.37,5.2,6.37a5.74,5.74,0,0,0,3.86-1.66l.68.93a6.86,6.86,0,0,1-4.6,1.9C209.6,33.53,206.79,30.76,206.79,26Z"/><path class="cls-3" d="M221.47,31.24V11.59h1.33V31.42c0,.64.26.94.62.94a2.23,2.23,0,0,0,.54-.06l.22,1.08a2.9,2.9,0,0,1-1,.15C222.07,33.53,221.47,32.82,221.47,31.24Z"/><path class="cls-3" d="M227.37,26c0-4.69,3-7.59,6.28-7.59,3.41,0,5.51,2.43,5.51,6.67a6.53,6.53,0,0,1-.07,1.08H228.73c.05,3.64,2.18,6.23,5.42,6.23A6.5,6.5,0,0,0,238,31.11l.55,1A7.89,7.89,0,0,1,234,33.53C230.35,33.53,227.37,30.7,227.37,26Zm10.54-.93c0-3.68-1.66-5.51-4.25-5.51-2.44,0-4.64,2.06-4.94,5.51Z"/><rect class="cls-8" x="22.9" y="578.32" width="21.14" height="21.14" rx="3.82"/><rect class="cls-7" x="22.9" y="605.04" width="21.14" height="21.14" rx="3.82"/><path class="cls-3" d="M57.54,616.54v-7.71h1.67v7.75c0,3.16,1.34,4.15,3,4.15s3.11-1,3.11-4.15v-7.75H67v7.71c0,4.21-2,5.66-4.72,5.66S57.54,620.75,57.54,616.54Z"/><path class="cls-3" d="M69.19,620.85l.81-1.09a4.38,4.38,0,0,0,2.87,1.16c1.27,0,1.91-.68,1.91-1.51,0-1-1.15-1.45-2.23-1.85-1.36-.5-2.9-1.17-2.9-2.81S70.9,612,73,612a4.9,4.9,0,0,1,3,1.1l-.79,1a3.65,3.65,0,0,0-2.21-.87c-1.23,0-1.79.66-1.79,1.4,0,.92,1.05,1.28,2.16,1.69,1.4.53,3,1.1,3,2.95,0,1.57-1.25,2.89-3.55,2.89A5.84,5.84,0,0,1,69.19,620.85Z"/><path class="cls-3" d="M77.92,617.11c0-3.17,2.13-5.12,4.37-5.12,2.48,0,3.88,1.78,3.88,4.57a6.09,6.09,0,0,1-.07.93H79.55c.12,2.06,1.37,3.4,3.23,3.4a4.23,4.23,0,0,0,2.42-.78l.59,1.08a5.72,5.72,0,0,1-3.21,1C80,622.2,77.92,620.3,77.92,617.11Zm6.8-.8c0-1.95-.88-3-2.4-3-1.37,0-2.59,1.1-2.79,3Z"/><path class="cls-3" d="M88.56,612.23h1.36l.14,1.77h.06a3.34,3.34,0,0,1,2.76-2,2.36,2.36,0,0,1,1,.2l-.31,1.45a2.58,2.58,0,0,0-.94-.16c-.82,0-1.8.59-2.46,2.23V622H88.56Z"/><path class="cls-3" d="M99.66,608.83h1.67v5.5h6.1v-5.5h1.67V622h-1.67v-6.17h-6.1V622H99.66Z"/><path class="cls-3" d="M111.82,617.11c0-3.25,2.12-5.12,4.51-5.12s4.5,1.87,4.5,5.12-2.12,5.09-4.5,5.09S111.82,620.33,111.82,617.11Zm7.31,0c0-2.23-1.13-3.75-2.8-3.75s-2.81,1.52-2.81,3.75,1.13,3.72,2.81,3.72S119.13,619.34,119.13,617.11Z"/><path class="cls-3" d="M122.66,617.11c0-3.25,2.12-5.12,4.51-5.12s4.5,1.87,4.5,5.12-2.12,5.09-4.5,5.09S122.66,620.33,122.66,617.11Zm7.31,0c0-2.23-1.13-3.75-2.8-3.75s-2.81,1.52-2.81,3.75,1.13,3.72,2.81,3.72S130,619.34,130,617.11Z"/><path class="cls-3" d="M134.14,607.71h1.62v9.65h.05l4.15-5.13h1.83l-3.26,3.91,3.69,5.82h-1.8l-2.84-4.68-1.82,2.13V622h-1.62Z"/><path class="cls-3" d="M143,620.85l.82-1.09a4.38,4.38,0,0,0,2.87,1.16c1.27,0,1.91-.68,1.91-1.51,0-1-1.15-1.45-2.23-1.85-1.36-.5-2.9-1.17-2.9-2.81s1.25-2.76,3.36-2.76a4.9,4.9,0,0,1,3,1.1l-.79,1a3.68,3.68,0,0,0-2.21-.87c-1.23,0-1.79.66-1.79,1.4,0,.92,1,1.28,2.15,1.69,1.41.53,3,1.1,3,2.95,0,1.57-1.25,2.89-3.55,2.89A5.89,5.89,0,0,1,143,620.85Z"/><path class="cls-3" d="M57.6,583h1.67v13.13H57.6Z"/><path class="cls-3" d="M62.7,586.39h1.36l.14,1.4h.06a4.62,4.62,0,0,1,3.26-1.64c2,0,3,1.32,3,3.81v6.16H68.84v-6c0-1.81-.55-2.59-1.83-2.59-1,0-1.69.51-2.66,1.49v7H62.7Z"/><path class="cls-3" d="M73.93,593.11v-5.38H72.49v-1.24l1.52-.1.19-2.72h1.38v2.72h2.63v1.34H75.58v5.41c0,1.19.38,1.88,1.5,1.88a3.07,3.07,0,0,0,1.11-.27l.32,1.25a6.07,6.07,0,0,1-1.81.36C74.63,596.36,73.93,595,73.93,593.11Z"/><path class="cls-3" d="M79.4,591.27c0-3.17,2.13-5.12,4.37-5.12,2.48,0,3.88,1.78,3.88,4.56a6.13,6.13,0,0,1-.07.94H81c.12,2.06,1.37,3.4,3.23,3.4a4.31,4.31,0,0,0,2.42-.78l.59,1.08a5.72,5.72,0,0,1-3.21,1C81.46,596.36,79.4,594.46,79.4,591.27Zm6.8-.8c0-2-.88-3-2.4-3-1.37,0-2.59,1.1-2.79,3Z"/><path class="cls-3" d="M90,586.39H91.4l.14,1.77h.06a3.34,3.34,0,0,1,2.76-2,2.36,2.36,0,0,1,1,.2l-.31,1.45a2.58,2.58,0,0,0-.94-.16c-.82,0-1.8.59-2.46,2.23v6.25H90Z"/><path class="cls-3" d="M97,586.39h1.36l.14,1.4h.06a4.62,4.62,0,0,1,3.26-1.64c2,0,3,1.32,3,3.81v6.16h-1.65v-6c0-1.81-.55-2.59-1.83-2.59-1,0-1.69.51-2.66,1.49v7H97Z"/><path class="cls-3" d="M107.32,593.59c0-2.12,1.83-3.18,6-3.63,0-1.25-.42-2.45-2-2.45a5.33,5.33,0,0,0-2.9,1l-.65-1.13a7.13,7.13,0,0,1,3.82-1.27c2.37,0,3.38,1.58,3.38,4v6h-1.36l-.14-1.17h-.06a5.14,5.14,0,0,1-3.21,1.41A2.64,2.64,0,0,1,107.32,593.59Zm6,.15V591c-3.26.4-4.36,1.19-4.36,2.44s.75,1.55,1.71,1.55A4,4,0,0,0,113.29,593.74Z"/><path class="cls-3" d="M118,594.16v-12.3h1.65v12.42c0,.51.22.71.46.71a1.46,1.46,0,0,0,.36,0l.22,1.25a2.51,2.51,0,0,1-1,.16C118.51,596.36,118,595.57,118,594.16Z"/><path class="cls-3" d="M127.26,583h1.67v5.5H135V583h1.67v13.13H135v-6.18h-6.1v6.18h-1.67Z"/><path class="cls-3" d="M139.42,591.27c0-3.25,2.12-5.12,4.51-5.12s4.5,1.87,4.5,5.12-2.12,5.09-4.5,5.09S139.42,594.49,139.42,591.27Zm7.31,0c0-2.23-1.13-3.75-2.8-3.75s-2.81,1.52-2.81,3.75,1.13,3.72,2.81,3.72S146.73,593.5,146.73,591.27Z"/><path class="cls-3" d="M150.26,591.27c0-3.25,2.12-5.12,4.51-5.12s4.5,1.87,4.5,5.12-2.12,5.09-4.5,5.09S150.26,594.49,150.26,591.27Zm7.31,0c0-2.23-1.13-3.75-2.8-3.75S152,589,152,591.27s1.13,3.72,2.81,3.72S157.57,593.5,157.57,591.27Z"/><path class="cls-3" d="M161.74,581.86h1.62v9.66h0l4.15-5.13h1.83l-3.26,3.91,3.69,5.82H168l-2.84-4.68-1.82,2.12v2.56h-1.62Z"/><path class="cls-3" d="M170.56,595l.82-1.09a4.37,4.37,0,0,0,2.87,1.15c1.27,0,1.91-.68,1.91-1.51,0-1-1.15-1.44-2.23-1.84-1.36-.5-2.9-1.17-2.9-2.81s1.25-2.76,3.36-2.76a5,5,0,0,1,3,1.09l-.79,1.06a3.62,3.62,0,0,0-2.21-.87c-1.23,0-1.79.66-1.79,1.4,0,.92,1,1.27,2.15,1.69,1.41.52,3,1.09,3,3,0,1.57-1.25,2.89-3.55,2.89A5.89,5.89,0,0,1,170.56,595Z"/><rect class="cls-7" x="75.63" y="416.54" width="97.61" height="35.87" rx="3.82"/><path class="cls-3" d="M89.44,427.37h1.64v3.9l-.06,2a4.64,4.64,0,0,1,3.23-1.61c2,0,3,1.32,3,3.8v6.16H95.58v-5.95c0-1.81-.55-2.58-1.84-2.58-1,0-1.68.5-2.66,1.49v7H89.44Z"/><path class="cls-3" d="M99.71,439.1c0-2.12,1.83-3.18,6-3.63,0-1.25-.42-2.46-2-2.46a5.34,5.34,0,0,0-2.9,1.05l-.64-1.13a7.1,7.1,0,0,1,3.82-1.27c2.37,0,3.37,1.57,3.37,4v6H106l-.14-1.16h0a5.18,5.18,0,0,1-3.22,1.4A2.65,2.65,0,0,1,99.71,439.1Zm6,.15v-2.7c-3.26.39-4.36,1.19-4.36,2.43a1.49,1.49,0,0,0,1.7,1.56A4,4,0,0,0,105.69,439.25Z"/><path class="cls-3" d="M110.4,431.9h1.36l.14,1.4h0a4.66,4.66,0,0,1,3.26-1.64c2.05,0,3,1.32,3,3.8v6.16h-1.64v-5.95c0-1.81-.55-2.58-1.84-2.58-1,0-1.68.5-2.66,1.49v7H110.4Z"/><path class="cls-3" d="M120.64,436.77c0-3.15,2-5.11,4.21-5.11a4,4,0,0,1,2.73,1.12l-.07-1.66v-3.75h1.64v14.25h-1.36l-.14-1.15h-.05a4.29,4.29,0,0,1-2.95,1.39C122.22,441.86,120.64,440,120.64,436.77Zm6.87,2.38v-5.1a3.42,3.42,0,0,0-2.37-1c-1.56,0-2.8,1.5-2.8,3.72s1,3.72,2.67,3.72A3.38,3.38,0,0,0,127.51,439.15Z"/><path class="cls-3" d="M132.44,439.67v-12.3h1.64v12.42c0,.5.22.7.46.7a1.38,1.38,0,0,0,.36,0l.22,1.26a2.7,2.7,0,0,1-.94.15C132.94,441.86,132.44,441.07,132.44,439.67Z"/><path class="cls-3" d="M136.81,436.77c0-3.16,2.14-5.11,4.38-5.11,2.48,0,3.88,1.78,3.88,4.56a4.8,4.8,0,0,1-.08.93h-6.55c.12,2.06,1.38,3.4,3.23,3.4a4.23,4.23,0,0,0,2.42-.78l.59,1.08a5.7,5.7,0,0,1-3.21,1C138.88,441.86,136.81,440,136.81,436.77Zm6.8-.79c0-2-.87-3-2.39-3-1.37,0-2.59,1.1-2.79,3Z"/><path class="cls-3" d="M147.46,431.9h1.36l.13,1.77H149a3.34,3.34,0,0,1,2.76-2,2.2,2.2,0,0,1,1,.2l-.31,1.44a2.81,2.81,0,0,0-.94-.16c-.82,0-1.8.59-2.46,2.24v6.24h-1.64Z"/><path class="cls-3" d="M153.24,440.51l.81-1.08a4.37,4.37,0,0,0,2.87,1.15c1.28,0,1.91-.68,1.91-1.51,0-1-1.15-1.44-2.22-1.84-1.37-.5-2.9-1.17-2.9-2.81s1.24-2.76,3.35-2.76a4.89,4.89,0,0,1,3,1.09l-.78,1.05a3.69,3.69,0,0,0-2.22-.86c-1.22,0-1.79.65-1.79,1.39,0,.93,1.06,1.28,2.16,1.69,1.4.53,3,1.1,3,3,0,1.58-1.25,2.89-3.54,2.89A5.78,5.78,0,0,1,153.24,440.51Z"/><rect class="cls-7" x="125.75" y="137.52" width="143.36" height="35.87" rx="3.82"/><path class="cls-3" d="M171.83,159.9V147.6h1.65V160c0,.5.22.7.46.7a1.46,1.46,0,0,0,.36,0l.22,1.26a2.7,2.7,0,0,1-.94.15C172.34,162.09,171.83,161.31,171.83,159.9Z"/><path class="cls-3" d="M176.33,159.33c0-2.12,1.83-3.18,6-3.63,0-1.25-.42-2.46-2-2.46a5.34,5.34,0,0,0-2.9,1l-.65-1.13a7.13,7.13,0,0,1,3.82-1.27c2.38,0,3.38,1.58,3.38,4v6h-1.36l-.14-1.16h0a5.18,5.18,0,0,1-3.22,1.4A2.64,2.64,0,0,1,176.33,159.33Zm6,.15v-2.7c-3.25.39-4.36,1.19-4.36,2.43s.75,1.56,1.71,1.56A4,4,0,0,0,182.3,159.48Z"/><path class="cls-3" d="M186,165.84l.32-1.31a2.37,2.37,0,0,0,.74.15c1.1,0,1.79-.88,2.19-2.09l.23-.72-3.91-9.74h1.7l2,5.38c.31.85.64,1.84,1,2.74h.08c.28-.88.55-1.88.82-2.74l1.73-5.38h1.61l-3.66,10.52c-.69,1.93-1.69,3.39-3.64,3.39A3.14,3.14,0,0,1,186,165.84Z"/><path class="cls-3" d="M195.55,157c0-3.24,2.13-5.11,4.51-5.11s4.5,1.87,4.5,5.11-2.12,5.09-4.5,5.09S195.55,160.22,195.55,157Zm7.31,0c0-2.22-1.13-3.74-2.8-3.74s-2.81,1.52-2.81,3.74,1.14,3.72,2.81,3.72S202.86,159.23,202.86,157Z"/><path class="cls-3" d="M207,158.29v-6.16h1.65v6c0,1.81.55,2.58,1.83,2.58,1,0,1.69-.49,2.61-1.63v-6.9h1.64v9.72h-1.36l-.13-1.52h-.06a4.13,4.13,0,0,1-3.21,1.76C207.9,162.09,207,160.77,207,158.29Z"/><path class="cls-3" d="M218.28,158.85v-5.38h-1.44v-1.25l1.52-.09.19-2.73h1.38v2.73h2.63v1.34h-2.63v5.41c0,1.18.38,1.87,1.5,1.87a3.27,3.27,0,0,0,1.11-.26l.32,1.24a5.77,5.77,0,0,1-1.81.36C219,162.09,218.28,160.78,218.28,158.85Z"/></svg>